<?xml version="1.0" encoding="UTF-8"?>
<svg id="Camada_1" xmlns="http://www.w3.org/2000/svg" version="1.1" viewBox="0 0 24 24">
  <!-- Generator: Adobe Illustrator 29.4.0, SVG Export Plug-In . SVG Version: 2.1.0 Build 152)  -->
  <defs>
    <style>
      .st0 {
        fill: #323232;
        fill-rule: evenodd;
      }
    </style>
  </defs>
  <path class="st0" d="M20.5,15V4c0-1-.8-1.8-1.8-1.8H5.8c-1.5,0-2.8,1.2-2.8,2.8v13c0,1.5,1.2,2.8,2.8,2.8h5.3v1.8c0,.3.1.5.4.6.2.1.5.1.7,0l1.7-.8,1.7.8c.2.1.5.1.7,0,.2-.1.4-.4.4-.6v-1.8h3.3c.4,0,.8-.3.8-.8s-.3-.8-.8-.8h-.3v-2.7c.6-.3,1-.9,1-1.6ZM8.5,15.3V3.7h10.3c.1,0,.3.1.3.3v11c0,.1-.1.3-.3.3h-10.3ZM5.8,3.7h1.3v11.5h-1.3c-.5,0-.9.1-1.3.3V5c0-.7.6-1.3,1.3-1.3ZM15,21.3l-.9-.5c-.2-.1-.5-.1-.7,0l-.9.5v-2h2.5v2ZM16.5,19.3v-.8c0-.4-.3-.8-.8-.8h-4c-.4,0-.8.3-.8.8v.8h-5.3c-.7,0-1.3-.6-1.3-1.3s.6-1.3,1.3-1.3h12.3v2.5h-1.5Z"/>
</svg>