<?xml version="1.0" encoding="UTF-8"?>
<svg id="Camada_1" xmlns="http://www.w3.org/2000/svg" version="1.1" viewBox="0 0 24 24">
  <!-- Generator: Adobe Illustrator 29.0.0, SVG Export Plug-In . SVG Version: 2.1.0 Build 186)  -->
  <defs>
    <style>
      .st0 {
        fill: #323232;
      }
    </style>
  </defs>
  <path class="st0" d="M20,5h-9c-.6,0-1-.4-1-1s.4-1,1-1h9c.6,0,1,.4,1,1s-.4,1-1,1Z"/>
  <path class="st0" d="M20,10h-8.9c-.6,0-1-.4-1-1s.4-1,1-1h8.9c.6,0,1,.4,1,1s-.4,1-1,1Z"/>
  <path class="st0" d="M6.5,10h-2.5c-.6,0-1-.4-1-1s.4-1,1-1h.2v-1.8c-.3,0-.7,0-1-.3-.4-.4-.4-1,0-1.4l1.2-1.2c.3-.3.7-.4,1.1-.2.4.2.6.5.6.9v4h.2c.6,0,1,.4,1,1s-.4,1-1,1Z"/>
  <path class="st0" d="M20,16h-9c-.6,0-1-.4-1-1s.4-1,1-1h9c.6,0,1,.4,1,1s-.4,1-1,1Z"/>
  <path class="st0" d="M20,21h-8.9c-.6,0-1-.4-1-1s.4-1,1-1h8.9c.6,0,1,.4,1,1s-.4,1-1,1Z"/>
  <path class="st0" d="M6.8,21h-2.8c-.6,0-1-.4-1-1v-1.5c0-.4.2-.7.5-.9l2-1.2v-.4h-1.5c-.6,0-1-.4-1-1s.4-1,1-1h2.5c.6,0,1,.4,1,1v2c0,.4-.2.7-.5.9l-1.9,1.1h1.6c.6,0,1,.4,1,1s-.4,1-1,1Z"/>
</svg>