<?xml version="1.0" encoding="UTF-8"?>
<svg id="Camada_1" xmlns="http://www.w3.org/2000/svg" version="1.1" viewBox="0 0 24 24">
  <!-- Generator: Adobe Illustrator 29.1.0, SVG Export Plug-In . SVG Version: 2.1.0 Build 142)  -->
  <defs>
    <style>
      .st0 {
        fill: #323232;
      }

      .st1 {
        display: none;
      }
    </style>
  </defs>
  <path class="st0" d="M20,5h-9c-.6,0-1-.4-1-1s.4-1,1-1h9c.6,0,1,.4,1,1s-.4,1-1,1Z"/>
  <path class="st0" d="M20,10h-8.9c-.6,0-1-.4-1-1s.4-1,1-1h8.9c.6,0,1,.4,1,1s-.4,1-1,1Z"/>
  <path class="st0" d="M6.5,10h-2.5c-.6,0-1-.4-1-1s.4-1,1-1h.2v-1.8c-.3,0-.7,0-1-.3-.4-.4-.4-1,0-1.4l1.2-1.2c.3-.3.7-.4,1.1-.2s.6.5.6.9v4h.2c.6,0,1,.4,1,1s-.4,1-1,1h.2Z"/>
  <path class="st0" d="M20,16h-9c-.6,0-1-.4-1-1s.4-1,1-1h9c.6,0,1,.4,1,1s-.4,1-1,1Z"/>
  <path class="st0" d="M20,21h-8.9c-.6,0-1-.4-1-1s.4-1,1-1h8.9c.6,0,1,.4,1,1s-.4,1-1,1Z"/>
  <path class="st0" d="M6.8,21h-2.8c-.6,0-1-.4-1-1v-1.5c0-.4.2-.7.5-.9l2-1.2v-.4h-1.5c-.6,0-1-.4-1-1s.4-1,1-1h2.5c.6,0,1,.4,1,1v2c0,.4-.2.7-.5.9l-1.9,1.1h1.6c.6,0,1,.4,1,1s-.4,1-1,1h.1Z"/>
  <g class="st1">
    <path class="st0" d="M5.2,7.2c.2.4.4.9.7,1.5,0,.2.1.3.2.5,0,.2.1.3.2.5.4,1.1.8,2.2,1.1,3.4.5,1.9.6,3,.6,3.6,0,.6,0,1.3,0,1.9,0,0,.1,0,.2.1.2.1.3.2.5.3,0-.2,0-.3,0-.4,0-.7,0-1.4,0-2,0-.7-.2-1.8-.7-3.7-.3-1.2-.7-2.3-1.1-3.5,0-.2-.1-.3-.2-.5,0-.2-.1-.3-.2-.5-.2-.5-.4-1-.7-1.5-.1-.3-.3-.6-.4-.8-.5-.9-1.1-1.9-1.6-2.8h.5c.6.5,1.3,1,2,1.4.7.4,1.5.6,2.3.8,1,.2,1.9.2,2.6.2.1,0,.3,0,.5,0,.9,0,2.1,0,3.5-.5.2,0,.5-.2.7-.3,2-.8,3.3-2,3.8-2.5.1-.1.2-.2.3-.3h.5c-.5,1.2-1.1,2.5-1.6,3.7-.2.4-.3.8-.5,1.1-.3.6-.5,1.1-.6,1.6,0,.2-.1.3-.2.5h0c0,.2,0,.4-.1.5-.2.5-.4,1-.6,1.5-1,2.8-1.2,4-1.3,5.1,0,.8,0,1.6,0,2.4,0,0,0,.2,0,.4.2-.1.3-.2.5-.3,0,0,.1,0,.2-.1,0-.8-.1-1.5,0-2.3,0-.9.2-2,1.2-4.9.2-.5.3-1,.5-1.5,0-.2.1-.3.2-.5,0-.2.1-.3.2-.5.2-.5.4-1,.6-1.6.1-.4.3-.7.5-1.1.5-1.3,1.2-2.9,2-4.8h-2c-.1.2-.3.4-.5.6-.3.3-1.5,1.6-3.5,2.4-.2,0-.5.2-.7.2-1.3.4-2.4.5-3.3.5s-.3,0-.4,0c-.7,0-1.5,0-2.4-.2-.7-.1-1.4-.4-2.1-.7-.8-.4-1.5-.9-2.1-1.5l-2,.2c.8,1.2,1.6,2.4,2.3,3.7.1.2.3.5.4.8Z"/>
    <path class="st0" d="M18.5,9.9c0,.1,0,.2-.1.4.5,1,.7,2,.7,3.1,0,1.1-.2,2.1-.7,3.1-.5,1-1.1,1.8-2,2.4-1.2.9-2.7,1.4-4.2,1.4-1.5,0-2.9-.5-4.1-1.3-.9-.6-1.6-1.5-2.1-2.5-.5-1-.7-2-.7-3.1,0-1.1.3-2.3.8-3.3,0-.1,0-.2-.1-.3,0,0,0-.1,0-.2-.7,1.1-1,2.4-1,3.8,0,1.2.3,2.4.8,3.4.6,1.1,1.4,2,2.3,2.6,1.2.8,2.7,1.3,4.2,1.3,1.6,0,3.1-.5,4.3-1.4.9-.7,1.7-1.6,2.2-2.6.5-1,.8-2.2.8-3.3,0-1.3-.3-2.5-1-3.6,0,0,0,.1,0,.2Z"/>
    <path class="st0" d="M18.8,9c0,0,0,.2-.1.3.8,1.2,1.2,2.7,1.2,4.2,0,4.3-3.5,7.8-7.8,7.8s-7.8-3.5-7.8-7.8c0-1.5.4-3,1.3-4.3,0,0,0-.2-.1-.3-.2-.4-.4-.9-.6-1.3-1.3,1.6-2,3.7-2,5.8,0,5.1,4.1,9.3,9.3,9.3s9.3-4.1,9.3-9.3c0-2.1-.7-4.2-2-5.8-.2.5-.4,1-.5,1.3Z"/>
    <path class="st0" d="M8.7,8.2v.6h1.1v.6h-1.1v1.7h1.7v-.6h-1.2v-.6h1.2v-1.7h-1.7Z"/>
    <path class="st0" d="M13.8,11h1.7v-.6h-.6v-2.3h-.6v.6h-.6v.6h.6v1.2h-.6v.6Z"/>
    <path class="st0" d="M13.1,9l-.3-.3-.7.7-.7-.7-.3.3.7.7-.7.7.3.3.7-.7.7.7.3-.3-.7-.7.7-.7Z"/>
  </g>
</svg>