<?xml version="1.0" encoding="UTF-8"?>
<svg id="Camada_1" xmlns="http://www.w3.org/2000/svg" version="1.1" viewBox="0 0 24 24">
  <!-- Generator: Adobe Illustrator 29.0.0, SVG Export Plug-In . SVG Version: 2.1.0 Build 186)  -->
  <defs>
    <style>
      .st0 {
        fill: #323232;
      }

      .st1 {
        fill: none;
        stroke: #323232;
        stroke-linecap: round;
        stroke-linejoin: round;
        stroke-width: 2px;
      }
    </style>
  </defs>
  <path class="st1" d="M19.7,6.5h0"/>
  <path class="st1" d="M21.5,11.9h0"/>
  <path class="st0" d="M19.4,4.6c-1.2-1.2-2.6-2.1-4.2-2.6,0,0,0,0,0,0-1-.3-2.1-.5-3.2-.5s-2.1.2-3.2.5c0,0,0,0-.1,0-1.5.5-3,1.4-4.1,2.5-.4.4-.7.8-1,1.2,0,0,0,0,0,0-1.3,1.7-2,3.8-2,6,0,0,0,0,0,0s0,0,0,0c0,0,0,0,0,0,0,2.8,1.1,5.4,3.1,7.4,2,2,4.6,3.1,7.4,3.1s5.4-1.1,7.4-3.1,3.1-4.6,3.1-7.4-1.1-5.4-3.1-7.4ZM4.5,8.1l.5,1.7-1.4,1.1c.1-1,.4-1.9.9-2.7ZM3.6,13.3l2.7-2.1,1,.3,1.2,3.6-.6.9h-3.4c-.4-.9-.7-1.8-.8-2.7ZM10.3,14.3l-1-3.2,2.7-2,2.7,2-1,3.2h-3.3ZM16.1,16l-.6-.9,1.2-3.6,1-.3,2.7,2.1c-.1.9-.4,1.8-.8,2.6h-3.4ZM19,9.7l.5-1.7c.4.9.7,1.8.9,2.7l-1.4-1ZM18,6l-1,3.3-1,.3-3.1-2.2v-1.1l2.8-1.9c.8.4,1.5.9,2.2,1.6s0,0,0,0ZM12,3.5c.5,0,1,0,1.4.1l-1.4,1-1.4-1c.5,0,1-.1,1.4-.1ZM8.2,4.4l2.8,1.9v1.1l-3.1,2.2-1-.3-1-3.3s0,0,0,0c.7-.7,1.4-1.2,2.2-1.6ZM5.9,17.9h1.7c0,0,.6,1.7.6,1.7-.8-.4-1.6-.9-2.2-1.6s0,0,0,0ZM10.6,20.4l-1.1-3.2.6-.9h3.8l.6.9-1.1,3.2c-.5,0-.9.1-1.4.1s-.9,0-1.4-.1ZM15.8,19.6l.6-1.6h1.7s0,0,0,0c-.7.7-1.4,1.2-2.2,1.6Z"/>
</svg>