<?xml version="1.0" encoding="UTF-8"?>
<svg id="Camada_1" xmlns="http://www.w3.org/2000/svg" version="1.1" viewBox="0 0 24 24">
  <!-- Generator: Adobe Illustrator 29.0.0, SVG Export Plug-In . SVG Version: 2.1.0 Build 186)  -->
  <defs>
    <style>
      .st0 {
        fill: #323232;
      }
    </style>
  </defs>
  <path class="st0" d="M19,2H5c-1.7,0-3,1.3-3,3v1s0,0,0,0c0,0,0,.1,0,.2,0,0,0,.1,0,.2,0,0,0,0,0,.1,0,0,0,.1.1.2,0,0,0,0,0,0l6.3,5.4-2.7,4.1-2.3-2s0,0-.1,0c0,0-.1,0-.2-.1,0,0-.1,0-.2,0,0,0,0,0-.1,0s0,0,0,0c0,0-.1,0-.2,0,0,0-.1,0-.2,0,0,0,0,0-.1,0,0,0-.1,0-.2.1,0,0,0,0,0,0,0,0,0,0,0,.1,0,0,0,.1-.1.2,0,0,0,.1,0,.2,0,0,0,0,0,.1v4.2c0,.7.3,1.4.8,1.9.5.5,1.2.8,1.9.8h4.8c.7.7,1.6,1,2.6,1h3.3c.7,0,1.4-.4,1.8-1h1.8c1.7,0,3-1.3,3-3V5c0-1.7-1.3-3-3-3ZM14,4v1h-4v-1h4ZM4.7,20c-.2,0-.4,0-.5-.2-.1-.1-.2-.3-.2-.5v-2l3.2,2.7h-2.4ZM15.4,21h-3.3c-.5,0-.9-.2-1.3-.5l-3.4-2.9,3-4.5,5.7,1.5c.2,0,.3.2.3.4s-.2.4-.4.4h-2.1c-.6,0-1,.4-1,1v1c0,.2,0,.5.3.7l2.3,2.6s0,.1,0,.2,0,0-.1,0ZM20,19c0,.6-.4,1-1,1h-1.6c0-.2-.2-.4-.4-.6l-1.7-1.9h.7c1.3,0,2.4-1.1,2.4-2.4s-.8-2.1-1.8-2.4l-6.2-1.6-6.5-5.6v-.5c0-.6.4-1,1-1h3v1c0,1.1.9,2,2,2h4c1.1,0,2-.9,2-2v-1h3c.6,0,1,.4,1,1v14Z"/>
</svg>