<?xml version="1.0" encoding="UTF-8"?>
<svg id="success" viewBox="0 0 24 24">
  <path class="st0" d="M12,22c-.5,0-1.1-.1-1.6-.4-2.8-1.4-7.4-4.4-7.4-8.6v-5.5c0-1,.8-1.9,1.8-2,2-.2,3.8-.8,5.4-2,1.1-.8,2.5-.8,3.6,0,1.6,1.1,3.4,1.8,5.4,2,1,.1,1.8,1,1.8,2v5.5c0,4.2-4.6,7.2-7.4,8.6-.5.3-1,.4-1.6.4ZM12,5c-.2,0-.4,0-.6.2-1.9,1.4-4.1,2.2-6.4,2.4v5.4c0,3.3,4.4,5.9,6.3,6.8.4.2.9.2,1.4,0,1.9-1,6.3-3.6,6.3-6.8v-5.5c-2.3-.2-4.5-1-6.4-2.4-.2-.1-.4-.2-.6-.2Z"/>
  <path class="st0" d="M11.2,15.4c-.3,0-.5,0-.7-.3l-2.3-2.3c-.4-.4-.4-1,0-1.4.4-.4,1-.4,1.4,0l1.6,1.6,3.2-3.2c.4-.4,1-.4,1.4,0,.4.4.4,1,0,1.4l-3.9,3.9c-.2.2-.5.3-.7.3Z"/>
</svg>