<?xml version="1.0" encoding="UTF-8"?>
<svg id="Camada_1" xmlns="http://www.w3.org/2000/svg" version="1.1" viewBox="0 0 24 24">
  <!-- Generator: Adobe Illustrator 29.0.0, SVG Export Plug-In . SVG Version: 2.1.0 Build 186)  -->
  <defs>
    <style>
      .st0 {
        fill: #323232;
      }
    </style>
  </defs>
  <path class="st0" d="M18.2,5.5h1.1c.6,0,1-.4,1-1s-.4-1-1-1h-3.5c-.6,0-1,.4-1,1v3.5c0,.6.4,1,1,1s1-.4,1-1v-1.1c2,1.9,2.8,4.9,1.7,7.6-1.3,3.3-4.8,5.1-8.2,4.2-3.4-.9-5.7-4.2-5.2-7.7.4-3.5,3.4-6.1,6.9-6.1.6,0,1-.4,1-1s-.4-1-1-1c-4.5,0-8.4,3.4-8.9,7.9-.6,4.5,2.3,8.7,6.7,9.8.7.2,1.5.3,2.2.3,3.6,0,7-2.2,8.4-5.7,1.4-3.5.4-7.3-2.1-9.8Z"/>
</svg>