<?xml version="1.0" encoding="UTF-8"?>
<svg id="Camada_1" xmlns="http://www.w3.org/2000/svg" version="1.1" viewBox="0 0 24 24">
  <!-- Generator: Adobe Illustrator 29.1.0, SVG Export Plug-In . SVG Version: 2.1.0 Build 142)  -->
  <defs>
    <style>
      .st0 {
        fill: #323232;
      }
    </style>
  </defs>
  <polygon class="st0" points="10 2.3 10 1.3 10.6 1.3 10.6 1.2 10 1.2 10 .7 11.1 .7 11.1 1.8 10.6 1.8 10.6 1.8 11.1 1.8 11.1 2.3 10 2.3"/>
  <polygon class="st0" points="12.5 2.4 12.5 2.2 12.5 1.8 12.8 1.8 12.8 1.5 12.5 1.5 12.5 1 12.8 1 12.8 .7 13.3 .7 13.3 1.8 13.6 1.8 13.6 2.4 12.5 2.4"/>
  <polygon class="st0" points="11.2 1.9 11.5 1.6 11.2 1.2 11.5 .9 11.8 1.2 12.2 .9 12.5 1.2 12.2 1.6 12.5 1.9 12.2 2.2 11.8 1.9 11.5 2.2 11.2 1.9"/>
  <path class="st0" d="M12,15c-.3,0-.6,0-.8,0h0s0,0,0,0c-.6,0-2.7-.2-4.5-1.3-2-1.3-2.9-2.9-3.4-3.9-1.4-2.7-1.6-5.4-1.4-7.2v-.5s3.1,0,3.1,0v.5c.1.3.3.9.5,1.2h0s0,0,0,0c0,.3,0,.5,0,.8v.3s-.1,0-.1,0c-.3-.1-.6-.2-.8-.5-.2-.3-.4-.7-.6-1.3h-1.1c0,1.5,0,3.8,1.3,6.1.5.9,1.3,2.4,3,3.5,1.5,1,3.3,1.1,4,1.2.3,0,.6,0,.8,0s.5,0,.8,0c.2,0,.5,0,.8,0h.3s-.2.2-.2.2c-.3.3-.5.7-.8,1h0s0,0,0,0c-.2,0-.5,0-.8,0h0Z"/>
  <path class="st0" d="M6.2,23.5v-3.1l3.4-2.6c0-.4,0-1.3,0-2.3-.2-.1-.3-.3-.5-.6l-.2-.3h.3c.5.2,1,.3,1.4.3h0s0,0,0,0v.3c.1,1.5.1,2.6.1,2.8s0,.4-.2.5l-3.2,2.4v1.4h8.9v-1.4l-3.2-2.4c-.2-.1-.2-.3-.2-.5s0-1.3,0-2.8v-.2l.2-.2c.6-.7,1.2-1.5,1.7-2.4l-.2-.3c-.6-.6-1.5-1.6-2.6-2.7-1,.9-2,2-3.1,3,0,.1.1.3.2.4v.3c.1,0-.1,0-.1,0-.4-.1-.9-.3-1.3-.5h-.1c0-.1,0-.2,0-.2l.4-.4c1.1-1.1,2.2-2.2,3.2-3.2-1.6-1.6-3-2.7-3.9-3.3h0s0,0,0,0c0-.4,0-.7-.1-1.1v-.2s.2,0,.2,0c1.4.7,3.3,2.4,4.7,3.8,2.4-2.2,4.2-3.5,5.4-4,.4-.1.7-.2.9-.3.1,0,.4-.1.5-.2.2-.3.4-1,.4-1.2v-.5c0,0,3.1,0,3.1,0v.5s0,0,0,0c.2,1.8,0,4.5-1.4,7.2-.5,1-1.4,2.7-3.4,3.9-.6.4-1.3.7-2,.9h-.3c0,0,.2-.2.2-.2.3-.4.5-.8.7-1.2.4-.2.6-.3.9-.5,1.8-1.1,2.6-2.7,3-3.5,1.2-2.3,1.4-4.6,1.3-6.1h-1.1c0,.3-.2.9-.6,1.3-.2.3-.6.4-1,.5h-.1c-.2,0-.5.2-.8.3-1,.4-2.7,1.7-5,3.7,1.5,1.5,2.8,2.9,3.1,3.3l.3.3-.2.3c-.5,1.1-1.2,2.1-2,2.9,0,1,0,1.8,0,2.2l3.4,2.5v3.1H6.2Z"/>
  <path class="st0" d="M16,12c0,0-.6-.7-.6-.7h0c.6-1.6,1-3.3,1.2-5.3h0c0,0,0,0,0,0,.4-.2.7-.4,1-.5h.2c0,0,0,.1,0,.1-.2,1.7-.6,4.2-1.6,6.5v.2c0,0-.3-.2-.3-.2Z"/>
  <path class="st0" d="M7.3,12c-1.9-4.5-1.7-10-1.7-11V.5h3.5v2c0,.1,0,.2.2.2h5c.1,0,.2,0,.2-.2V.5h3.5v.5s0,.1,0,.1c0,.3,0,1.2,0,2.4h0c0,0-.2.2-.2.2-.2,0-.4.1-.6.2,0,0-.1,0-.2,0h-.2c0,0,0-.1,0-.1,0-1,0-1.7,0-2.3h-1.5v1.2c0,.5-.4.8-.8.8h-5.6c-.5,0-.8-.4-.8-.8v-1.2h-1.5c0,1.8,0,6,1.5,9.7h0c0,0,0,.1,0,.1-.2.2-.4.4-.5.5h0s-.1.1-.1.1l-.2.2v-.2Z"/>
</svg>