<?xml version="1.0" encoding="UTF-8"?>
<svg id="erro" viewBox="0 0 24 24">
  <path class="st0" d="M19.2,5.6c-1.9-.1-3.8-.8-5.4-2-1.1-.8-2.6-.8-3.6,0-1.6,1.1-3.4,1.8-5.4,2-1,.1-1.8,1-1.8,2v5.5c0,4.2,4.6,7.2,7.4,8.6.5.3,1,.4,1.6.4s1.1-.1,1.6-.4c2.8-1.4,7.4-4.4,7.4-8.6v-5.5c0-1-.8-1.9-1.8-2ZM19,13c0,3.3-4.4,5.8-6.3,6.8-.4.2-.9.2-1.4,0-1.9-1-6.3-3.6-6.3-6.8v-5.4c2.3-.2,4.5-1,6.4-2.4.2-.1.4-.2.6-.2s.4,0,.6.2c1.9,1.4,4.1,2.2,6.4,2.4v5.5Z"/>
  <path class="st0" d="M10.3,9.4c-.4-.4-1-.4-1.4,0-.4.4-.4,1,0,1.4l1.7,1.7-1.7,1.7c-.4.4-.4,1,0,1.4s.5.3.7.3.5,0,.7-.3l1.7-1.7,1.7,1.7c.2.2.5.3.7.3s.5,0,.7-.3c.4-.4.4-1,0-1.4l-1.7-1.7,1.7-1.7c.4-.4.4-1,0-1.4-.4-.4-1-.4-1.4,0l-1.7,1.7-1.7-1.7Z"/>
</svg>