<svg width="24" height="24" viewBox="0 0 24 24" fill="none" xmlns="http://www.w3.org/2000/svg">
<path fill-rule="evenodd" clip-rule="evenodd" d="M2 12C2 11.4477 2.44772 11 3 11H15.5C16.0523 11 16.5 11.4477 16.5 12C16.5 12.5523 16.0523 13 15.5 13H3C2.44772 13 2 12.5523 2 12Z" fill="#323232"/>
<path fill-rule="evenodd" clip-rule="evenodd" d="M18.6464 4.23743C18.4221 4.04743 18.1256 3.96573 17.8356 4.01406L9.8356 5.34739C9.3534 5.42775 8.99999 5.84495 9 6.3338V7.99999C9 8.55228 8.55228 8.99999 8 8.99999C7.44772 8.99999 7 8.55228 7 7.99999V6.33384V6.33384C6.99998 4.86731 8.06022 3.6157 9.5068 3.3746L17.5068 2.04127C18.3767 1.89629 19.2663 2.14138 19.9391 2.7114C20.612 3.28142 21 4.11862 21 5.00048V5.00048V18.9995C21 19.8813 20.612 20.7185 19.9391 21.2885C19.2663 21.8586 18.3767 22.1036 17.5068 21.9587L9.5068 20.6253C8.06024 20.3842 7.00001 19.1327 7 17.6662V16C7 15.4477 7.44772 15 8 15C8.55228 15 9 15.4477 9 16V17.6662C9 18.155 9.35341 18.5722 9.8356 18.6525L17.8356 19.9859C18.1256 20.0342 18.4221 19.9525 18.6464 19.7625C18.8707 19.5725 19 19.2934 19 18.9995V5.00048C19 4.70653 18.8707 4.42744 18.6464 4.23743Z" fill="#323232"/>
<path fill-rule="evenodd" clip-rule="evenodd" d="M11.7929 8.29289C12.1834 7.90236 12.8166 7.90236 13.2071 8.29289L16.2071 11.2929C16.5976 11.6834 16.5976 12.3166 16.2071 12.7071L13.2071 15.7071C12.8166 16.0976 12.1834 16.0976 11.7929 15.7071C11.4024 15.3166 11.4024 14.6834 11.7929 14.2929L14.0858 12L11.7929 9.7071C11.4024 9.31658 11.4024 8.68341 11.7929 8.29289Z" fill="#323232"/>
</svg>
