<?xml version="1.0" encoding="UTF-8"?>
<svg id="Camada_1" xmlns="http://www.w3.org/2000/svg" version="1.1" viewBox="0 0 24 24">
  <!-- Generator: Adobe Illustrator 29.0.0, SVG Export Plug-In . SVG Version: 2.1.0 Build 186)  -->
  <defs>
    <style>
      .st0 {
        fill: #323232;
      }
    </style>
  </defs>
  <path class="st0" d="M18,14.8v-2.5c0-.6-.4-1-1-1h-1c-.6,0-1,.4-1,1s.4,1,1,1v1.5c-.6,0-1,.4-1,1s.4,1,1,1h2c.6,0,1-.4,1-1s-.4-1-1-1Z"/>
  <path class="st0" d="M8,16.8h-2c-.8,0-1.5-.7-1.5-1.5v-2.5c0-.8.7-1.5,1.5-1.5h2c.8,0,1.5.7,1.5,1.5v2.5c0,.8-.7,1.5-1.5,1.5ZM6.5,14.8h1v-1.5h-1v1.5ZM8,13.3h0,0Z"/>
  <path class="st0" d="M20,6h-1v-3c0-.6-.4-1-1-1s-1,.4-1,1v3H7v-3c0-.6-.4-1-1-1s-1,.4-1,1v3h-1c-1.7,0-3,1.3-3,3v10c0,1.7,1.3,3,3,3h16c1.7,0,3-1.3,3-3v-10c0-1.7-1.3-3-3-3ZM3,19v-10c0-.6.4-1,1-1h7v12h-7c-.6,0-1-.4-1-1ZM21,19c0,.6-.4,1-1,1h-7v-12h7c.6,0,1,.4,1,1v10Z"/>
</svg>