<?xml version="1.0" encoding="UTF-8"?>
<svg id="Camada_1" xmlns="http://www.w3.org/2000/svg" version="1.1" viewBox="0 0 24 24">
  <!-- Generator: Adobe Illustrator 29.4.0, SVG Export Plug-In . SVG Version: 2.1.0 Build 152)  -->
  <defs>
    <style>
      .st0 {
        fill: #323232;
        fill-rule: evenodd;
      }
    </style>
  </defs>
  <path class="st0" d="M18.8,2h-10c-1.5,0-2.8,1.2-2.8,2.8v1.3h-.3c-1.5,0-2.8,1.2-2.8,2.8v6c0,1.5,1.2,2.8,2.8,2.8h.3v1.3c0,1.5,1.2,2.8,2.8,2.8h10c1.5,0,2.8-1.2,2.8-2.8V4.8c0-1.5-1.2-2.8-2.8-2.8ZM14.5,9.6h5.5v4.4h-5.5v-4.4ZM20,4.8v3.3h-5.5V3.5h4.3c.7,0,1.3.6,1.3,1.3ZM7.5,4.8c0-.7.6-1.3,1.3-1.3h4.3v2.8c-.4-.2-.8-.3-1.2-.3h-4.3v-1.3ZM4.5,14.8v-6c0-.7.6-1.2,1.2-1.2h6c.7,0,1.2.6,1.2,1.2v6c0,.7-.6,1.2-1.2,1.2h-6c-.7,0-1.2-.6-1.2-1.2ZM7.5,18.8v-1.3h4.3c.5,0,.9-.1,1.2-.3v2.8h-4.3c-.7,0-1.3-.6-1.3-1.3ZM18.8,20h-4.3v-4.5h5.5v3.3c0,.7-.6,1.3-1.3,1.3Z"/>
  <path class="st0" d="M6.8,14.1c.3.3.8.2,1.1,0l.9-1.1.9,1.1c.3.3.7.4,1.1,0,.3-.3.4-.7,0-1.1l-1.1-1.3,1.1-1.3c.3-.3.2-.8,0-1.1-.3-.3-.8-.2-1.1,0l-.9,1.1-.9-1.1c-.3-.3-.7-.4-1.1,0-.3.3-.4.7,0,1.1l1.1,1.3-1.1,1.3c-.3.3-.2.8,0,1.1Z"/>
</svg>