<?xml version="1.0" encoding="UTF-8"?>
<svg id="Camada_1" xmlns="http://www.w3.org/2000/svg" version="1.1" viewBox="0 0 24 24">
  <!-- Generator: Adobe Illustrator 29.1.0, SVG Export Plug-In . SVG Version: 2.1.0 Build 142)  -->
  <defs>
    <style>
      .st0 {
        fill: #323232;
      }
    </style>
  </defs>
  <path class="st0" d="M19.6,5.5h-1.6v-.5c0-1.1-.9-2-2-2h-8c-1.1,0-2,.9-2,2v.5h-1.6c-1,0-1.9.8-1.9,1.9v1.3c0,1.7,1,3.3,2.5,4l1.6.8c.8,1.8,2.5,3.1,4.4,3.4v2.1h-3c-.6,0-1,.4-1,1s.4,1,1,1h8c.6,0,1-.4,1-1s-.4-1-1-1h-3v-2.1c2-.3,3.6-1.6,4.4-3.4l1.6-.8c1.5-.8,2.5-2.3,2.5-4v-1.3c0-1-.8-1.9-1.9-1.9ZM4.5,8.7v-1.2h1.5v3.5h0c-.9-.5-1.4-1.3-1.4-2.3ZM12,15c-2.2,0-4-1.8-4-4v-4.5h0v-1.5h8v6c0,2.2-1.8,4-4,4ZM19.5,8.7c0,1-.5,1.8-1.4,2.2h-.1v-3.4h1.5v1.2Z"/>
</svg>