<?xml version="1.0" encoding="UTF-8"?><svg id="Layer_2" xmlns="http://www.w3.org/2000/svg" viewBox="0 0 936.88 950.61"><defs><style>.cls-1{fill:#06ddbb;}</style></defs><g id="Camada_4"><path class="cls-1" d="M848.21,191.57l-62.28,62.28,62.75,31.64c-10.01,77.91-39.27,220.61-124.05,340.57l-.27,.38c-2,2.82-3.9,5.49-5.91,8.2-5.94,8.06-12.34,16.34-19.09,24.7l-24.7-24.71h0s-3.64-3.64-3.64-3.64l-7.73-7.73h0s-36.78-36.78-36.78-36.78l-111.14-111.14,149.99-150.02,50.86,25.96c-12.53,52.04-35.84,125.23-77.12,189.8l-3.47,5.42,60.22,60.19,5.44-7.99c69.62-102.23,97.84-224.1,108.47-287.64l.97-5.81-83.31-42.01,88.13-88.13L468.44,0,216.31,127.19l62.3,62.24,189.83-95.73,184.66,93.16,37.84,19.07-25.77,25.91-.09-.05-50.17,50.46-.19-.1-116.05,116.05-30.19,30.23-134.36-134.36h0s134.33-67.78,134.33-67.78l101.72,51.3,62.28-62.29-164-82.7-154.12,77.72-42.51,21.45-88.13-88.13L0,236.29l.16,5.1c.08,2.54,2.16,63.17,21.7,148.4,18.04,78.71,55.06,193.62,128.95,294.11l5.52,7.51,59.82-59.84-3.89-5.51c-85.33-120.7-114.36-262.97-124.17-340.55l95.5-48.16,25.87,25.88h0s5.78,5.78,5.78,5.78l6.14,6.14h0s50.13,50.12,50.13,50.12l150.07,150.07-99.75,99.72c-2.53-3.25-5.16-6.74-8.04-10.62-5.61-7.64-11-15.5-16.01-23.37-41.57-64.86-64.86-137.86-77.33-189.69l18.62-9.41-62.28-62.28-50.81,25.62,.97,5.81c12.88,77.39,42.2,190.1,108.62,287.52,3.02,4.53,6.45,9.41,10.84,15.39,4.94,6.71,10.26,13.61,15.86,20.6l-84.16,84.16,4.74,5.62c10.74,12.74,22.19,25.47,34.02,37.85,11.57,12.1,23.83,24.21,36.45,35.98,105.29,98.25,210.57,150.16,211.62,150.67l3.51,1.71,3.51-1.71c1.05-.51,106.34-52.43,211.63-150.71l6.05-5.65-59.23-59.23-5.65,5.25c-61.3,56.88-122.75,96.74-156.3,116.68-33.55-19.94-95-59.8-156.31-116.66-10.42-9.64-20.62-19.58-30.39-29.63l35.91-35.91h0s38.85-38.85,38.85-38.85l111.97-111.93,102.9,102.9c-9.61,9.89-19.8,19.8-30.44,29.52-22.4,20.5-46.77,40.3-72.49,58.92-25.69-18.6-50.06-38.39-72.5-58.89l-5.65-5.16-59.19,59.19,6.13,5.65c48.16,44.37,95.59,77.46,126.91,97.4l4.3,2.74,4.3-2.74c30.86-19.66,77.33-52.04,124.64-95.28l2.32-2.12c10.67-9.84,21-19.92,30.85-30.05l83.82,83.83,5.66-5.93c12.14-12.71,23.58-25.45,34-37.82,10.84-12.75,21.51-26.22,31.69-40.05,.13-.17,.24-.32,.35-.48,73.89-100.49,110.9-215.4,128.95-294.1,19.54-85.23,21.62-145.85,21.7-148.38l.16-5.1-88.67-44.72Zm-154.77,390.06l-37.41-37.39c41.97-67.7,65.13-143.33,77.24-195.46l1.42-6.13-57.61-29.05h.01s-47.32-23.86-47.32-23.86l38.44-38.44,124.78,62.92c-10.82,61.89-37.55,172.46-99.55,267.42ZM273.97,248.59l194.47-98.08,137.03,69.1-38.44,38.45-98.59-49.72-193.56,97.64-38.46-38.45,37.55-18.96Zm32.67,412.8c-.54-.58-1.09-1.15-1.63-1.74-1-1.09-2-2.18-3-3.27-1.65-1.8-3.29-3.62-4.92-5.44-.97-1.09-1.95-2.18-2.91-3.27-1.73-1.96-3.44-3.93-5.15-5.91-.82-.95-1.65-1.9-2.46-2.85-2.45-2.88-4.89-5.77-7.28-8.68-.03-.04-.07-.08-.1-.12-7.11-8.68-13.81-17.29-19.9-25.57-4.22-5.77-7.53-10.47-10.46-14.87-63.2-92.68-92.02-199.84-105.12-275.4l29.94-15.1,38.46,38.46-10.12,5.12,1.42,6.12c12.36,53.32,36.43,131.44,80.88,200.8,5.2,8.14,10.78,16.29,16.61,24.24,3.43,4.64,6.54,8.73,9.52,12.53h0s.47,.59,.47,.59c1.35,1.71,2.68,3.38,4,5h.01s0,.02,0,.02c0,0,0,0,.01,.01,2.41,3.01,4.88,6.02,7.39,9.03,.81,.97,1.64,1.94,2.46,2.91,1.73,2.05,3.48,4.1,5.25,6.14,.98,1.13,1.97,2.25,2.97,3.38,1.69,1.91,3.39,3.82,5.11,5.72,1.01,1.12,2.03,2.23,3.05,3.35,.69,.75,1.36,1.5,2.05,2.25l-36.54,36.54Zm284.5,39.08l-2.3,2.12c-45.08,41.53-89.64,73.06-120.4,92.92-29.31-18.92-71.19-48.48-114.2-87.3l36.58-36.58c22.69,20.33,47.21,39.92,72.97,58.31l4.65,3.32,4.65-3.32c27.96-19.96,54.42-41.32,78.65-63.48,10.81-9.88,21.17-19.95,30.96-30.01l.06,.06,5.66-5.97c2.75-2.9,5.45-5.83,8.13-8.76,.86-.94,1.7-1.89,2.55-2.83,1.82-2.02,3.63-4.04,5.41-6.07,.96-1.09,1.91-2.18,2.85-3.27,1.68-1.94,3.35-3.89,4.99-5.84,.91-1.07,1.82-2.15,2.71-3.22,.43-.52,.88-1.04,1.31-1.56l36.65,36.65c-.61,.72-1.2,1.44-1.81,2.16-.95,1.12-1.91,2.24-2.87,3.36-1.58,1.84-3.18,3.68-4.8,5.52-.96,1.09-1.92,2.19-2.89,3.28-1.77,1.99-3.56,3.97-5.37,5.96-.84,.93-1.68,1.86-2.53,2.78-2.67,2.9-5.37,5.81-8.12,8.7h0c-10.58,11.13-21.84,22.25-33.51,33.09Z"/></g></svg>