<svg width="153" height="156" viewBox="0 0 153 156" fill="none" xmlns="http://www.w3.org/2000/svg">
<g id="Resultadismo" clip-path="url(#clip0_5_2)">
<path id="inner" d="M52.53 47.69L60.31 43.72L76.73 35.43L93.15 43.72L101.44 35.43L76.9 22.99L52.36 35.43L44.58 39.4L36.8 43.37L45.09 51.66L52.52 47.69H52.53ZM124.59 47.34L116.81 43.37L109.03 39.4L100.74 47.69L108.52 51.66L116.3 55.63L118.55 56.84C116.3 66.17 112.5 78.44 105.59 89.33L113.54 97.28C124.6 81.21 129.09 62.03 130.99 50.8L124.6 47.34H124.59ZM95.39 102.29C93.49 104.36 91.42 106.26 89.51 108.17C85.02 112.32 80.52 115.77 76.72 118.54C72.92 115.78 68.43 112.32 63.93 108.35L56.15 116.13C63.75 123.21 71.36 128.57 76.71 131.85C82.07 128.39 89.67 123.04 97.27 116.13C99.17 114.23 101.25 112.33 103.15 110.25C105.05 108.35 106.78 106.28 108.68 104.03L100.73 96.08C99 98.15 97.1 100.23 95.37 102.3L95.39 102.29ZM52.53 96.07C51.84 95.03 50.97 94.17 50.28 93.13C49.42 91.92 48.38 90.54 47.69 89.16C40.78 78.27 36.8 66 34.56 56.67L36.98 55.46L28.69 47.17L22.12 50.45C24.02 61.68 28.69 80.69 39.75 96.93C40.27 97.79 40.96 98.66 41.48 99.35C42.52 100.73 43.73 102.29 44.76 103.67C46.49 105.74 48.39 107.82 50.29 109.89L58.07 102.11C56.17 100.21 54.27 98.14 52.54 96.06L52.53 96.07Z" fill="#232323"/>
<path id="Shield" d="M138.76 31.28L128.56 41.48L138.76 46.66C137.2 59.45 132.37 82.78 118.54 102.3C118.19 102.82 117.85 103.16 117.5 103.68C116.46 105.06 115.43 106.27 114.39 107.65L110.41 103.68L109.89 103.16L108.51 101.95L102.46 95.9L84.32 77.76L108.86 53.22L117.15 57.54C115.08 66.01 111.27 78.1 104.53 88.64L104.01 89.5L113.86 99.35L114.72 97.97C126.13 81.21 130.79 61.34 132.52 50.79L132.69 49.75L119.04 42.84L133.38 28.5L76.55 0L35.42 20.74L45.62 30.94L76.73 15.21L106.97 30.42L113.19 33.53L108.87 37.85L100.75 46.14L81.74 65.15L76.73 70.16L54.61 48.04L76.56 36.98L93.15 45.45L103.35 35.25L76.57 21.77L51.34 34.56L44.43 38.02L30.09 23.68L0 38.71V39.57C0 39.92 0.35 49.94 3.63 63.76C6.57 76.72 12.62 95.38 24.71 111.8L25.57 113.01L35.42 103.16L34.73 102.3C20.73 82.6 16.07 59.44 14.34 46.66L29.89 38.71L34.04 42.86L34.9 43.72L36.28 44.93L44.4 53.05L68.94 77.76L52.7 94C52.35 93.48 51.84 92.96 51.32 92.27C50.46 91.06 49.59 89.68 48.73 88.47C41.99 77.93 38.19 65.83 36.12 57.37L39.23 55.81L29.03 45.61L20.74 49.76L20.91 50.8C22.98 63.41 27.82 81.9 38.71 97.8C39.23 98.49 39.75 99.36 40.44 100.39C41.3 101.43 42.17 102.64 43.03 103.67L29.21 117.5L29.9 118.36C31.63 120.43 33.53 122.51 35.43 124.58C37.33 126.48 39.4 128.55 41.48 130.46C58.76 146.53 75.87 155 76.04 155.17L76.56 155.52L77.08 155.17C77.25 155.17 94.53 146.53 111.64 130.46L112.68 129.6L103 119.92L102.14 120.78C92.12 130.11 82.09 136.68 76.56 139.79C71.03 136.51 61.01 129.94 50.98 120.78C49.25 119.22 47.52 117.5 45.97 115.94L51.85 110.06L58.24 103.67L76.56 85.35L93.32 102.11C91.77 103.67 90.04 105.39 88.31 106.95C84.68 110.23 80.71 113.52 76.39 116.63C72.24 113.52 68.27 110.41 64.47 106.95L63.61 106.09L53.93 115.77L54.97 116.63C62.92 123.89 70.52 129.24 75.71 132.53L76.4 133.05L77.09 132.53C82.1 129.25 89.7 124.06 97.48 116.98L97.83 116.63C99.56 115.07 101.29 113.35 102.84 111.79L116.49 125.44L117.35 124.4C119.25 122.33 121.15 120.25 122.88 118.18C124.61 116.11 126.34 113.86 128.06 111.61C140.16 95.19 146.21 76.36 149.14 63.57C152.25 49.57 152.6 39.72 152.77 39.38V38.52L138.77 31.26L138.76 31.28ZM113.36 95.22L107.31 89.17C114.22 78.11 118.02 65.67 119.93 57.2L120.1 56.16L110.6 51.32L102.82 47.35L109.04 41.13L129.43 51.5C127.88 61.52 123.55 79.67 113.36 95.22ZM44.76 40.61L76.56 24.54L99.02 35.77L92.8 41.99L76.73 33.87L44.93 50.11L38.71 43.89L44.76 40.61ZM50.12 108.18C50.0067 108.067 49.89 107.95 49.77 107.83C49.6 107.66 49.42 107.48 49.25 107.31C48.9 106.97 48.73 106.79 48.39 106.45C48.22 106.28 48.04 106.1 47.87 105.93C47.52 105.58 47.35 105.24 47.01 104.89C46.84 104.72 46.66 104.54 46.66 104.37C46.31 103.85 45.8 103.51 45.45 102.99C44.24 101.61 43.2 100.23 42.17 98.84C41.48 97.98 40.96 97.11 40.44 96.42C30.07 81.21 25.41 63.76 23.16 51.32L28 48.9L34.22 55.12L32.49 55.98L32.66 57.02C34.73 65.66 38.54 78.45 45.97 89.85C46.83 91.23 47.7 92.44 48.73 93.82C49.25 94.51 49.77 95.2 50.29 95.89V96.06C50.46 96.41 50.81 96.58 50.98 96.92C51.33 97.44 51.84 97.96 52.19 98.48C52.36 98.65 52.54 98.83 52.54 99C52.89 99.35 53.06 99.69 53.4 100.04C53.57 100.21 53.75 100.39 53.92 100.56C54.27 100.91 54.44 101.25 54.78 101.42C54.95 101.59 55.13 101.77 55.3 101.94C55.4133 102.053 55.53 102.17 55.65 102.29L50.12 108.17V108.18ZM96.78 114.57L96.43 114.92C89 121.66 81.74 126.84 76.73 130.13C71.89 127.02 65.15 122.18 58.07 115.79L64.12 109.74C67.75 113.02 71.9 116.31 76.04 119.24L76.73 119.76L77.42 119.24C81.91 115.96 86.41 112.5 90.21 108.87C91.94 107.31 93.67 105.59 95.22 104.03L96.08 102.99C96.6 102.47 96.94 101.95 97.46 101.61C97.63 101.44 97.81 101.26 97.81 101.09C98.16 100.75 98.33 100.4 98.67 100.05C98.84 99.88 99.02 99.7 99.19 99.53C99.54 99.18 99.71 98.84 100.05 98.49C100.22 98.32 100.4 98.14 100.57 97.97L100.74 97.8L106.79 103.85L106.44 104.2C106.27 104.37 106.09 104.55 105.92 104.72C105.75 105.07 105.4 105.24 105.06 105.58C104.89 105.75 104.71 105.93 104.54 106.1C104.19 106.45 104.02 106.79 103.68 107.14C103.51 107.31 103.33 107.49 103.33 107.66C102.81 108.18 102.47 108.52 101.95 109.04C100.4 110.94 98.67 112.84 96.77 114.57H96.78Z" fill="#06DDBB"/>
</g>
<defs>
<clipPath id="clip0_5_2">
<rect width="152.76" height="155.52" fill="white"/>
</clipPath>
</defs>
</svg>
