<?xml version="1.0" encoding="utf-8"?>
<!-- Generator: Adobe Illustrator 26.0.1, SVG Export Plug-In . SVG Version: 6.00 Build 0)  -->
<svg version="1.1" id="livetype" xmlns="http://www.w3.org/2000/svg" xmlns:xlink="http://www.w3.org/1999/xlink" x="0px" y="0px"
	 viewBox="0 0 135 40" style="enable-background:new 0 0 135 40;" xml:space="preserve">
<style type="text/css">
	.st0{fill:#B7B7B7;}
	.st1{fill:#FFFFFF;}
</style>
<path class="st0" d="M124.3,0H8.5C7.7,0,7,0.1,6.2,0.2C5.5,0.3,4.7,0.5,4.1,0.8C3.4,1.1,2.8,1.5,2.2,2c-0.5,0.5-1,1-1.3,1.6
	C0.6,4.2,0.3,4.9,0.2,5.5C0.1,6.2,0,6.8,0,7.5c0,0.3,0,0.6,0,0.9v23.1c0,0.3,0,0.6,0,0.9c0,0.7,0.1,1.3,0.2,2
	c0.1,0.7,0.4,1.3,0.7,1.9C1.3,37,1.7,37.5,2.2,38c0.5,0.5,1.1,0.9,1.8,1.2c0.7,0.3,1.4,0.5,2.1,0.6C7,39.9,7.7,40,8.5,40h118.1
	c0.8,0,1.5-0.1,2.3-0.2c0.7-0.1,1.5-0.3,2.2-0.6c0.7-0.3,1.3-0.7,1.8-1.2c0.5-0.5,1-1,1.3-1.6c0.3-0.6,0.6-1.2,0.7-1.9
	c0.1-0.7,0.2-1.3,0.2-2c0-0.3,0-0.6,0-0.9V8.4c0-0.3,0-0.6,0-0.9c0-0.7-0.1-1.3-0.2-2c-0.1-0.7-0.4-1.3-0.7-1.9
	c-0.3-0.6-0.8-1.1-1.3-1.6c-0.5-0.5-1.2-0.9-1.8-1.2c-0.7-0.3-1.4-0.5-2.2-0.6C128,0.1,127.3,0,126.5,0L124.3,0L124.3,0z"/>
<path d="M9.5,39.1h-1c-0.7,0-1.4,0-2.1-0.1c-0.7-0.1-1.3-0.3-1.9-0.6c-0.6-0.3-1.1-0.6-1.6-1C2.5,37,2.1,36.5,1.8,36
	c-0.3-0.5-0.5-1.1-0.6-1.7C1.1,33.7,1,33.1,1,32.5c0-0.2,0-0.9,0-0.9V8.4c0,0,0-0.7,0-0.9c0-0.6,0.1-1.3,0.2-1.9
	C1.3,5.1,1.5,4.5,1.8,4c0.3-0.5,0.7-1,1.1-1.4c0.5-0.4,1-0.7,1.6-1C5.1,1.3,5.7,1.1,6.4,1c0.7-0.1,1.4-0.2,2.1-0.2h118
	c0.7,0,1.4,0.1,2.1,0.2c0.7,0.1,1.3,0.3,1.9,0.5c1.2,0.5,2.1,1.4,2.7,2.4c0.3,0.5,0.5,1.1,0.6,1.7c0.1,0.6,0.2,1.3,0.2,1.9v0.9
	c0,0.4,0,0.7,0,1.1v20.9c0,0.4,0,0.7,0,1.1v0.9c0,0.6-0.1,1.2-0.2,1.8c-0.1,0.6-0.3,1.1-0.6,1.7c-0.3,0.5-0.7,1-1.1,1.4
	c-0.5,0.4-1,0.7-1.6,1c-0.6,0.3-1.2,0.5-1.9,0.6c-0.7,0.1-1.4,0.2-2.1,0.2L9.5,39.1L9.5,39.1z"/>
<path class="st1" d="M32.4,20.3c0-1.7,0.9-3.3,2.4-4.1c-0.9-1.3-2.4-2.1-4-2.2c-1.7-0.2-3.3,1-4.2,1s-2.2-1-3.6-1
	c-1.9,0.1-3.6,1.1-4.5,2.7c-1.9,3.4-0.5,8.3,1.4,11c0.9,1.3,2,2.8,3.4,2.8s1.9-0.9,3.6-0.9s2.1,0.9,3.6,0.9s2.4-1.3,3.3-2.7
	c0.7-0.9,1.2-2,1.5-3.1C33.6,24,32.4,22.2,32.4,20.3z"/>
<path class="st1" d="M29.7,12.2c0.8-1,1.2-2.2,1.1-3.5c-1.2,0.1-2.4,0.7-3.2,1.7c-0.8,0.9-1.2,2.1-1.1,3.4
	C27.7,13.8,28.9,13.2,29.7,12.2z"/>
<path class="st1" d="M50,27.1h-4.7l-1.1,3.4h-2l4.5-12.4h2.1l4.5,12.4h-2L50,27.1z M45.7,25.6h3.8l-1.8-5.5h0L45.7,25.6z"/>
<path class="st1" d="M62.8,26c0,2.8-1.5,4.6-3.8,4.6c-1.2,0-2.3-0.6-2.9-1.6l0,0v4.5h-1.9v-12h1.8V23l0,0c0.6-1,1.7-1.6,2.9-1.6
	C61.3,21.4,62.8,23.2,62.8,26z M60.9,26c0-1.8-1-3-2.4-3s-2.4,1.2-2.4,3s1,3,2.4,3S60.9,27.8,60.9,26z"/>
<path class="st1" d="M72.8,26c0,2.8-1.5,4.6-3.8,4.6c-1.2,0.1-2.3-0.6-2.9-1.6l0,0v4.5h-1.9v-12h1.8V23l0,0c0.6-1,1.7-1.6,2.9-1.6
	C71.3,21.4,72.8,23.2,72.8,26z M70.9,26c0-1.8-0.9-3-2.4-3c-1.5,0-2.4,1.2-2.4,3s0.9,3,2.4,3S70.9,27.8,70.9,26z"/>
<path class="st1" d="M79.4,27c0.1,1.2,1.3,2,3,2s2.7-0.8,2.7-1.9s-0.7-1.5-2.3-1.9l-1.6-0.4c-2.3-0.5-3.3-1.6-3.3-3.3
	c0-2.1,1.9-3.6,4.5-3.6s4.4,1.5,4.5,3.6h-1.9c-0.1-1.2-1.1-2-2.6-2s-2.5,0.8-2.5,1.9c0,0.9,0.7,1.4,2.2,1.8l1.4,0.3
	C86,24,87,25,87,26.8c0,2.3-1.9,3.8-4.8,3.8c-2.8,0-4.6-1.4-4.7-3.7L79.4,27z"/>
<path class="st1" d="M91,19.3v2.1h1.7v1.5H91v5c0,0.8,0.3,1.1,1.1,1.1c0.2,0,0.4,0,0.6,0v1.5c-0.3,0.1-0.7,0.1-1,0.1
	c-1.8,0-2.6-0.7-2.6-2.5v-5.2h-1.3v-1.5h1.3v-2.1H91z"/>
<path class="st1" d="M93.7,26c0-2.9,1.7-4.6,4.3-4.6s4.3,1.8,4.3,4.6s-1.7,4.6-4.3,4.6S93.7,28.8,93.7,26z M100.4,26
	c0-2-0.9-3.1-2.4-3.1S95.7,24,95.7,26s0.9,3.1,2.4,3.1S100.4,27.9,100.4,26z"/>
<path class="st1" d="M103.9,21.4h1.8V23l0,0c0.2-1,1.2-1.7,2.2-1.6c0.2,0,0.4,0,0.6,0.1v1.7c-0.3-0.1-0.5-0.2-0.8-0.2
	c-1-0.1-1.9,0.7-2,1.7c0,0.1,0,0.3,0,0.4v5.4h-1.8V21.4z"/>
<path class="st1" d="M117,27.8c-0.2,1.6-1.8,2.8-3.9,2.8c-2.6,0-4.3-1.8-4.3-4.6s1.6-4.7,4.2-4.7s4.1,1.7,4.1,4.5v0.6h-6.4v0.1
	c-0.1,1.3,0.9,2.4,2.1,2.6c0.1,0,0.2,0,0.3,0c0.9,0.1,1.7-0.4,2.1-1.3L117,27.8z M110.8,25.1h4.5c0.1-1.2-0.8-2.2-2-2.3
	c-0.1,0-0.1,0-0.2,0C111.8,22.8,110.8,23.9,110.8,25.1C110.8,25.1,110.8,25.1,110.8,25.1z"/>
<path class="st1" d="M43.3,14.7v-6h2.4c1.1,0,1.8,0.6,1.8,1.5c0,0.6-0.4,1.1-1,1.3v0.1c0.8,0.1,1.3,0.7,1.3,1.5c0,1.1-0.8,1.7-2,1.7
	L43.3,14.7z M44.3,11.3h1.1c0.8,0,1.2-0.3,1.2-0.9s-0.4-0.9-1.1-0.9h-1.2V11.3z M45.6,13.9c0.8,0,1.3-0.3,1.3-1S46.4,12,45.5,12
	h-1.3v1.9L45.6,13.9z"/>
<path class="st1" d="M48.8,13.4c0-0.8,0.6-1.3,1.7-1.3l1.2-0.1v-0.4c0-0.5-0.3-0.7-0.9-0.7s-0.8,0.2-0.9,0.5H49
	c0.1-0.8,0.8-1.3,1.8-1.3s1.8,0.6,1.8,1.5v3.1h-0.9v-0.6l0,0c-0.3,0.5-0.8,0.7-1.3,0.7c-0.7,0.1-1.4-0.4-1.5-1.2
	C48.8,13.5,48.8,13.5,48.8,13.4z M51.7,13v-0.4l-1.1,0.1c-0.6,0-0.9,0.3-0.9,0.6S50,14,50.5,14C51.1,14,51.6,13.6,51.7,13
	C51.7,13,51.7,13,51.7,13z"/>
<path class="st1" d="M53.8,8.9c0-0.3,0.2-0.5,0.5-0.5c0,0,0,0,0,0c0.3,0,0.5,0.2,0.5,0.5c0,0.3-0.2,0.5-0.5,0.5c0,0,0,0,0,0
	C54.1,9.4,53.9,9.2,53.8,8.9C53.8,8.9,53.8,8.9,53.8,8.9z M54,10.2h0.9v4.5H54V10.2z"/>
<path class="st1" d="M57.9,13.1l-1,1.6h-1l1.5-2.2l-1.5-2.3h1l1,1.6H58l1-1.6h1l-1.5,2.2l1.5,2.3h-1L57.9,13.1L57.9,13.1z"/>
<path class="st1" d="M60.8,13.4c0-0.8,0.6-1.3,1.7-1.3l1.2-0.1v-0.4c0-0.5-0.3-0.7-0.9-0.7s-0.8,0.2-0.9,0.5H61
	c0.1-0.8,0.8-1.3,1.8-1.3s1.8,0.6,1.8,1.5v3.1h-0.9v-0.6h-0.1c-0.3,0.5-0.8,0.7-1.3,0.7c-0.7,0.1-1.4-0.5-1.5-1.2
	C60.8,13.5,60.8,13.5,60.8,13.4z M63.7,13v-0.4l-1.1,0.1c-0.6,0-0.9,0.3-0.9,0.6S62,14,62.5,14C63.1,14,63.6,13.6,63.7,13
	C63.7,13,63.7,13,63.7,13z"/>
<path class="st1" d="M65.9,10.2h0.9v0.7h0.1c0.2-0.5,0.7-0.8,1.2-0.8c0.1,0,0.3,0,0.4,0V11c-0.2,0-0.3,0-0.5,0
	c-0.6-0.1-1.1,0.4-1.1,0.9c0,0,0,0,0,0.1v2.7h-0.9L65.9,10.2z"/>
<path class="st1" d="M71.9,10.2h0.8v0.7h0.1c0.2-0.5,0.8-0.8,1.3-0.8c0.8,0,1.5,0.6,1.5,1.4c0,0.1,0,0.2,0,0.3v2.9h-0.9V12
	c0-0.7-0.3-1.1-1-1.1c-0.6,0-1,0.4-1.1,0.9c0,0.1,0,0.1,0,0.2v2.6h-0.9L71.9,10.2z"/>
<path class="st1" d="M76.8,13.4c0-0.8,0.6-1.3,1.7-1.3l1.2-0.1v-0.4c0-0.5-0.3-0.7-0.9-0.7s-0.8,0.2-0.9,0.5H77
	c0.1-0.8,0.8-1.3,1.8-1.3s1.8,0.6,1.8,1.5v3.1h-0.9v-0.6h-0.1c-0.3,0.5-0.8,0.7-1.3,0.7c-0.7,0.1-1.4-0.5-1.5-1.2
	C76.8,13.5,76.8,13.5,76.8,13.4z M79.7,13v-0.4l-1.1,0.1c-0.6,0-0.9,0.3-0.9,0.6s0.4,0.6,0.8,0.6C79.1,14.1,79.7,13.7,79.7,13
	C79.7,13.1,79.7,13,79.7,13L79.7,13z"/>
</svg>
