<?xml version="1.0" encoding="utf-8"?>
<!-- Generator: Adobe Illustrator 27.0.0, SVG Export Plug-In . SVG Version: 6.00 Build 0)  -->
<svg version="1.1" id="Layer_1" xmlns="http://www.w3.org/2000/svg" xmlns:xlink="http://www.w3.org/1999/xlink" x="0px" y="0px"
	 viewBox="0 0 135 40" style="enable-background:new 0 0 135 40;" xml:space="preserve">
<style type="text/css">
	.st0{clip-path:url(#SVGID_00000166678095259211235890000014229260279097222025_);}
	.st1{fill:#B0ADAB;}
	.st2{fill:#FFFFFF;}
	.st3{fill:#70C9F3;}
	.st4{clip-path:url(#SVGID_00000140720545308382107980000000946564093307978427_);}
	.st5{fill:url(#SVGID_00000029753927543559118250000002157046120492776332_);}
	.st6{clip-path:url(#SVGID_00000168107860035837602850000001499909534073434777_);}
	.st7{fill:url(#SVGID_00000003810027712085275870000001525571467363785146_);}
	.st8{clip-path:url(#SVGID_00000161628310984896017710000012042439113503578551_);}
	.st9{fill:url(#SVGID_00000066500342888332956450000005333297441231060617_);}
	.st10{fill:none;stroke:#FFFFFF;stroke-width:0.2;stroke-miterlimit:10;}
</style>
<g>
	<g>
		<g>
			<defs>
				<rect id="SVGID_1_" x="0.1" y="0.1" width="134.9" height="39.9"/>
			</defs>
			<clipPath id="SVGID_00000127023826705026177720000016355461176113080208_">
				<use xlink:href="#SVGID_1_"  style="overflow:visible;"/>
			</clipPath>
			<g style="clip-path:url(#SVGID_00000127023826705026177720000016355461176113080208_);">
				<path d="M130,40.1H5c-2.8,0-5-2.2-5-5v-30c0-2.8,2.2-5,5-5h125c2.8,0,5,2.2,5,5v30C135,37.8,132.8,40.1,130,40.1"/>
				<path class="st1" d="M130,0.9c2.3,0,4.2,1.9,4.2,4.2v30c0,2.3-1.9,4.2-4.2,4.2H5c-2.3,0-4.2-1.9-4.2-4.2l0,0v-30
					c0-2.3,1.9-4.2,4.2-4.2l0,0L130,0.9 M130,0.1H5c-2.8,0-5,2.2-5,5l0,0v30c0,2.8,2.2,5,5,5h125c2.8,0,5-2.2,5-5v-30
					C135,2.3,132.8,0.1,130,0.1z"/>
			</g>
		</g>
	</g>
	<path class="st2" d="M68.1,21.8c-2.4,0-4.3,1.9-4.3,4.3s1.9,4.3,4.3,4.3s4.3-1.9,4.3-4.3l0,0c0-2.3-1.8-4.2-4.1-4.3
		C68.2,21.8,68.2,21.8,68.1,21.8 M68.1,28.6c-1.4,0.1-2.7-1-2.8-2.4c-0.1-1.4,1-2.7,2.4-2.8s2.7,1,2.8,2.4c0,0.1,0,0.1,0,0.2
		C70.6,27.4,69.6,28.6,68.1,28.6C68.2,28.6,68.2,28.6,68.1,28.6L68.1,28.6z M58.8,21.8c-2.4,0-4.3,1.9-4.2,4.3s1.9,4.3,4.3,4.2
		c2.3,0,4.2-1.9,4.2-4.3c0-2.3-1.8-4.2-4.1-4.3C58.9,21.8,58.9,21.8,58.8,21.8L58.8,21.8z M58.8,28.6c-1.4,0.1-2.7-1-2.8-2.4
		s1-2.7,2.4-2.8c1.4-0.1,2.7,1,2.8,2.4c0,0.1,0,0.1,0,0.2C61.3,27.4,60.2,28.6,58.8,28.6C58.9,28.6,58.8,28.6,58.8,28.6L58.8,28.6z
		 M47.7,23.1v1.8H52c-0.1,0.8-0.4,1.6-1,2.3c-0.9,0.9-2.1,1.4-3.3,1.3c-2.7,0-4.8-2.1-4.8-4.8s2.1-4.8,4.8-4.8
		c1.2,0,2.4,0.4,3.3,1.3l1.3-1.3c-1.2-1.2-2.8-1.8-4.5-1.8c-3.6-0.1-6.7,2.7-6.9,6.3c-0.1,3.6,2.7,6.7,6.3,6.9c0.2,0,0.3,0,0.5,0
		c1.7,0.1,3.4-0.6,4.6-1.9c1-1.2,1.6-2.7,1.6-4.2c0-0.4,0-0.8-0.1-1.1L47.7,23.1z M93.1,24.5c-0.5-1.6-2-2.6-3.6-2.7
		c-2.2,0-4,1.8-4,4c0,0.1,0,0.2,0,0.3c0,2.3,1.8,4.2,4.1,4.2c0.1,0,0.1,0,0.2,0c1.4,0,2.8-0.7,3.6-1.9l-1.5-1
		c-0.4,0.7-1.2,1.2-2.1,1.2s-1.7-0.5-2.1-1.3l5.7-2.4L93.1,24.5z M87.2,25.9c-0.1-1.3,0.9-2.4,2.2-2.5l0,0c0.7,0,1.3,0.3,1.6,0.9
		L87.2,25.9z M82.6,30.1h1.9V17.6h-1.9V30.1z M79.6,22.8L79.6,22.8c-0.6-0.6-1.5-1-2.3-1c-2.3,0.1-4.2,2.1-4,4.5
		c0.1,2.2,1.9,3.9,4,4c0.9,0,1.7-0.3,2.2-1h0.1v0.6c0,1.6-0.9,2.5-2.3,2.5c-1,0-1.8-0.6-2.2-1.5l-1.6,0.7c0.6,1.5,2.1,2.5,3.8,2.5
		c2.2,0,4-1.3,4-4.4v-7.6h-1.7V22.8z M77.4,28.6c-1.4-0.1-2.5-1.3-2.4-2.7c0.1-1.3,1.1-2.3,2.4-2.4c1.3,0.1,2.3,1.2,2.3,2.5
		c0,0,0,0,0,0.1c0.1,1.3-0.9,2.5-2.2,2.6C77.5,28.6,77.5,28.6,77.4,28.6z M101.8,17.6h-4.5v12.5h1.9v-4.7h2.6c2.1,0.2,4-1.5,4.2-3.6
		s-1.5-4-3.6-4.2C102.2,17.5,102,17.5,101.8,17.6z M101.8,23.6h-2.6v-4.3h2.7c1.2,0,2.1,1,2.1,2.1C104,22.6,103,23.6,101.8,23.6
		L101.8,23.6L101.8,23.6z M113.3,21.8c-1.4-0.1-2.7,0.7-3.3,1.9l1.7,0.7c0.3-0.6,1-1,1.7-0.9c1-0.1,1.9,0.6,2,1.6l0,0v0.1
		c-0.6-0.3-1.3-0.5-1.9-0.5c-1.8,0-3.6,1-3.6,2.8c0.1,1.6,1.4,2.8,3,2.8h0.1c1,0.1,1.9-0.4,2.4-1.2h0.1v1h1.8v-4.8
		C117.2,23.1,115.5,21.8,113.3,21.8L113.3,21.8z M113.1,28.6c-0.6,0-1.5-0.3-1.5-1.1c0-1,1.1-1.3,2-1.3c0.6,0,1.2,0.1,1.7,0.4
		C115.2,27.8,114.3,28.6,113.1,28.6L113.1,28.6z M123.7,22.1l-2.1,5.4h-0.1l-2.2-5.4h-2l3.3,7.6l-1.9,4.2h2l5.1-11.8
		C125.8,22.1,123.7,22.1,123.7,22.1z M106.9,30.1h1.9V17.6h-1.9V30.1z"/>
	<path class="st3" d="M10.4,7.6C10.1,8,9.9,8.5,10,9.1v22.1c0,0.5,0.1,1,0.5,1.4l0.1,0.1l12.3-12.4V20L10.4,7.6L10.4,7.6"/>
	<g>
		<g>
			<defs>
				<path id="SVGID_00000096778608561612548340000016083060752761935541_" d="M27,24.3l-4.1-4.1v-0.3l4.1-4.1h0.1l4.9,2.8
					c1.4,0.8,1.4,2.1,0,2.9l-4.9,2.8L27,24.3"/>
			</defs>
			<clipPath id="SVGID_00000137810927744239507720000010782271099865514431_">
				<use xlink:href="#SVGID_00000096778608561612548340000016083060752761935541_"  style="overflow:visible;"/>
			</clipPath>
			<g style="clip-path:url(#SVGID_00000137810927744239507720000010782271099865514431_);">
				
					<linearGradient id="SVGID_00000134228949968881267810000016034772377140899252_" gradientUnits="userSpaceOnUse" x1="-1070.5145" y1="462.7017" x2="-1069.5145" y2="462.7017" gradientTransform="matrix(-24.18 0 0 24.18 -25853.9512 -11168.0762)">
					<stop  offset="0" style="stop-color:#FFE000"/>
					<stop  offset="0.41" style="stop-color:#FABD00"/>
					<stop  offset="0.78" style="stop-color:#F6A300"/>
					<stop  offset="1" style="stop-color:#F59A00"/>
				</linearGradient>
				
					<rect x="22.9" y="15.8" style="fill:url(#SVGID_00000134228949968881267810000016034772377140899252_);" width="10.5" height="8.5"/>
			</g>
		</g>
	</g>
	<g>
		<g>
			<defs>
				<path id="SVGID_00000172403245981382106040000002698865098723037066_" d="M27.1,24.3l-4.2-4.2L10.4,32.5
					c0.6,0.5,1.5,0.5,2.1,0.1L27.1,24.3"/>
			</defs>
			<clipPath id="SVGID_00000151527516331014970130000017623106157642254213_">
				<use xlink:href="#SVGID_00000172403245981382106040000002698865098723037066_"  style="overflow:visible;"/>
			</clipPath>
			<g style="clip-path:url(#SVGID_00000151527516331014970130000017623106157642254213_);">
				
					<linearGradient id="SVGID_00000150820863591270741700000013407468027962882189_" gradientUnits="userSpaceOnUse" x1="-1041.9275" y1="477.6259" x2="-1040.9275" y2="477.6259" gradientTransform="matrix(-22.7406 22.7406 22.7406 22.7406 -34531.6562 12854.0049)">
					<stop  offset="0" style="stop-color:#E7383D"/>
					<stop  offset="1" style="stop-color:#C81166"/>
				</linearGradient>
				<polygon style="fill:url(#SVGID_00000150820863591270741700000013407468027962882189_);" points="3.9,26.6 18.8,11.7 33.6,26.6 
					18.8,41.4 				"/>
			</g>
		</g>
	</g>
	<g>
		<g>
			<defs>
				<path id="SVGID_00000041290478797922033010000002732700467203657125_" d="M27.1,15.8L12.5,7.6c-0.6-0.5-1.5-0.5-2.1,0.1
					l12.4,12.4L27.1,15.8"/>
			</defs>
			<clipPath id="SVGID_00000026847036554233576500000000391144291593345452_">
				<use xlink:href="#SVGID_00000041290478797922033010000002732700467203657125_"  style="overflow:visible;"/>
			</clipPath>
			<g style="clip-path:url(#SVGID_00000026847036554233576500000000391144291593345452_);">
				
					<linearGradient id="SVGID_00000139980881413086647130000003193869126491333007_" gradientUnits="userSpaceOnUse" x1="-989.6945" y1="463.3914" x2="-988.6945" y2="463.3914" gradientTransform="matrix(18.5686 18.5686 18.5686 -18.5686 9773.7656 26977.623)">
					<stop  offset="0" style="stop-color:#229966"/>
					<stop  offset="0.15" style="stop-color:#33A064"/>
					<stop  offset="0.52" style="stop-color:#5BAF5E"/>
					<stop  offset="0.82" style="stop-color:#73B95B"/>
					<stop  offset="1" style="stop-color:#7CBC5A"/>
				</linearGradient>
				<polygon style="fill:url(#SVGID_00000139980881413086647130000003193869126491333007_);" points="3.9,13.6 18.8,-1.3 33.6,13.6 
					18.8,28.4 				"/>
			</g>
		</g>
	</g>
	<path class="st2" d="M41.3,13.1v-6h1.8c0.8,0,1.6,0.3,2.2,0.8c0.6,0.6,0.9,1.4,0.8,2.2c0,0.8-0.3,1.6-0.8,2.2
		c-0.6,0.6-1.4,0.9-2.2,0.8H41.3 M42.1,12.3h1.1c0.6,0,1.2-0.2,1.7-0.6c0.4-0.4,0.6-1.1,0.6-1.7c0.1-1.2-0.8-2.2-1.9-2.3
		c-0.1,0-0.2,0-0.4,0h-1.1C42.1,7.7,42.1,12.3,42.1,12.3z"/>
	<path class="st10" d="M41.3,13.1v-6h1.8c0.8,0,1.6,0.3,2.2,0.8c0.6,0.6,0.9,1.4,0.8,2.2c0,0.8-0.3,1.6-0.8,2.2
		c-0.6,0.6-1.4,0.9-2.2,0.8H41.3z M42.1,12.3h1.1c0.6,0,1.2-0.2,1.7-0.6c0.4-0.4,0.6-1.1,0.6-1.7c0.1-1.2-0.8-2.2-1.9-2.3
		c-0.1,0-0.2,0-0.4,0h-1.1C42.1,7.7,42.1,12.3,42.1,12.3z"/>
	<rect x="47.3" y="7.1" class="st2" width="0.8" height="6"/>
	<rect x="47.3" y="7.1" class="st10" width="0.8" height="6"/>
	<path class="st2" d="M51.1,13.2c-0.5,0-0.9-0.2-1.3-0.4c-0.4-0.3-0.7-0.7-0.8-1.2l0.7-0.3c0.1,0.3,0.3,0.6,0.5,0.8s0.5,0.3,0.9,0.3
		c0.3,0,0.6-0.1,0.9-0.3c0.2-0.2,0.4-0.4,0.4-0.7s-0.1-0.6-0.4-0.8c-0.3-0.2-0.7-0.4-1.1-0.5C50.4,10,50,9.8,49.7,9.5
		s-0.4-0.6-0.4-1s0.2-0.8,0.5-1.1c0.7-0.6,1.8-0.6,2.6-0.1c0.3,0.2,0.5,0.5,0.6,0.8l-0.7,0.3c-0.1-0.2-0.2-0.4-0.4-0.5
		c-0.2-0.2-0.5-0.3-0.8-0.2c-0.3,0-0.5,0.1-0.8,0.2C50.2,8.1,50,8.3,50,8.5s0.1,0.4,0.3,0.6c0.3,0.2,0.5,0.3,0.8,0.4
		c0.3,0.1,0.5,0.2,0.7,0.3s0.4,0.2,0.6,0.4c0.2,0.1,0.4,0.3,0.5,0.6c0.1,0.2,0.2,0.5,0.2,0.8s-0.1,0.5-0.2,0.8
		c-0.1,0.2-0.3,0.4-0.5,0.5s-0.4,0.2-0.6,0.3C51.6,13.2,51.4,13.2,51.1,13.2"/>
	<path class="st10" d="M51.1,13.2c-0.5,0-0.9-0.2-1.3-0.4c-0.4-0.3-0.7-0.7-0.8-1.2l0.7-0.3c0.1,0.3,0.3,0.6,0.5,0.8
		s0.5,0.3,0.9,0.3c0.3,0,0.6-0.1,0.9-0.3c0.2-0.2,0.4-0.4,0.4-0.7s-0.1-0.6-0.4-0.8c-0.3-0.2-0.7-0.4-1.1-0.5
		C50.4,10,50,9.8,49.7,9.5s-0.4-0.6-0.4-1s0.2-0.8,0.5-1.1c0.7-0.6,1.8-0.6,2.6-0.1c0.3,0.2,0.5,0.5,0.6,0.8l-0.7,0.3
		c-0.1-0.2-0.2-0.4-0.4-0.5c-0.2-0.2-0.5-0.3-0.8-0.2c-0.3,0-0.5,0.1-0.8,0.2C50.2,8.1,50,8.3,50,8.5s0.1,0.4,0.3,0.6
		c0.3,0.2,0.5,0.3,0.8,0.4c0.3,0.1,0.5,0.2,0.7,0.3s0.4,0.2,0.6,0.4c0.2,0.1,0.4,0.3,0.5,0.6c0.1,0.2,0.2,0.5,0.2,0.8
		s-0.1,0.5-0.2,0.8c-0.1,0.2-0.3,0.4-0.5,0.5s-0.4,0.2-0.6,0.3C51.6,13.2,51.4,13.2,51.1,13.2z"/>
	<path class="st2" d="M55,13.1h-0.8v-6h2c0.5,0,1,0.2,1.3,0.5c0.7,0.6,0.8,1.7,0.1,2.4l-0.1,0.1c-0.4,0.3-0.8,0.5-1.3,0.5H55V13.1
		 M55,9.9h1.3c0.3,0,0.6-0.1,0.8-0.3c0.4-0.4,0.4-1,0-1.4l0,0c-0.2-0.2-0.5-0.3-0.8-0.3H55V9.9z"/>
	<path class="st10" d="M55,13.1h-0.8v-6h2c0.5,0,1,0.2,1.3,0.5c0.7,0.6,0.8,1.7,0.1,2.4l-0.1,0.1c-0.4,0.3-0.8,0.5-1.3,0.5H55V13.1z
		 M55,9.9h1.3c0.3,0,0.6-0.1,0.8-0.3c0.4-0.4,0.4-1,0-1.4l0,0c-0.2-0.2-0.5-0.3-0.8-0.3H55V9.9z"/>
	<path class="st2" d="M64,12.3c-1.2,1.2-3.2,1.2-4.4,0c-0.6-0.6-0.9-1.4-0.8-2.2c0-0.8,0.3-1.6,0.9-2.2c1.2-1.2,3.2-1.2,4.4,0l0,0
		c0.6,0.6,0.9,1.4,0.9,2.2C64.9,10.9,64.6,11.7,64,12.3 M60.2,11.8c0.4,0.4,1,0.7,1.6,0.7s1.2-0.2,1.6-0.7c0.5-0.4,0.7-1.1,0.7-1.7
		c0-0.6-0.2-1.3-0.7-1.7c-0.4-0.4-1-0.7-1.6-0.7s-1.2,0.2-1.6,0.7c-0.4,0.5-0.7,1.1-0.7,1.7S59.8,11.3,60.2,11.8L60.2,11.8z"/>
	<path class="st10" d="M64,12.3c-1.2,1.2-3.2,1.2-4.4,0c-0.6-0.6-0.9-1.4-0.8-2.2c0-0.8,0.3-1.6,0.9-2.2c1.2-1.2,3.2-1.2,4.4,0l0,0
		c0.6,0.6,0.9,1.4,0.9,2.2C64.9,10.9,64.6,11.7,64,12.3z M60.2,11.8c0.4,0.4,1,0.7,1.6,0.7s1.2-0.2,1.6-0.7c0.5-0.4,0.7-1.1,0.7-1.7
		c0-0.6-0.2-1.3-0.7-1.7c-0.4-0.4-1-0.7-1.6-0.7s-1.2,0.2-1.6,0.7c-0.4,0.5-0.7,1.1-0.7,1.7S59.8,11.3,60.2,11.8L60.2,11.8z"/>
	<polyline class="st2" points="66,13.1 66,7.1 66.9,7.1 69.9,11.7 69.9,11.7 69.9,10.6 69.9,7.1 70.6,7.1 70.6,13.1 69.8,13.1 
		66.8,8.2 66.8,8.2 66.8,9.3 66.8,13.1 66,13.1 	"/>
	<polygon class="st10" points="66,13.1 66,7.1 66.9,7.1 69.9,11.7 69.9,11.7 69.9,10.6 69.9,7.1 70.6,7.1 70.6,13.1 69.8,13.1 
		66.8,8.2 66.8,8.2 66.8,9.3 66.8,13.1 	"/>
	<path class="st2" d="M72,7.1h0.8v6H72V7.1z M72.7,6.6H72l0.4-1.1h0.8L72.7,6.6z"/>
	<path class="st10" d="M72,7.1h0.8v6H72V7.1z M72.7,6.6H72l0.4-1.1h0.8L72.7,6.6z"/>
	<polyline class="st2" points="75.6,13.1 73.5,7.1 74.4,7.1 76,11.9 76.1,11.9 77.8,7.1 78.6,7.1 76.4,13.1 75.6,13.1 	"/>
	<polygon class="st10" points="75.6,13.1 73.5,7.1 74.4,7.1 76,11.9 76.1,11.9 77.8,7.1 78.6,7.1 76.4,13.1 	"/>
	<polyline class="st2" points="83,7.8 80.3,7.8 80.3,9.7 82.7,9.7 82.7,10.4 80.3,10.4 80.3,12.3 83,12.3 83,13.1 79.5,13.1 
		79.5,7.1 83,7.1 83,7.8 	"/>
	<polygon class="st10" points="83,7.8 80.3,7.8 80.3,9.7 82.7,9.7 82.7,10.4 80.3,10.4 80.3,12.3 83,12.3 83,13.1 79.5,13.1 
		79.5,7.1 83,7.1 	"/>
	<polyline class="st2" points="84.2,13.1 84.2,7.1 85,7.1 85,12.3 87.6,12.3 87.6,13.1 84.2,13.1 	"/>
	<polygon class="st10" points="84.2,13.1 84.2,7.1 85,7.1 85,12.3 87.6,12.3 87.6,13.1 	"/>
	<polyline class="st2" points="90.6,13.1 90.6,7.1 91.5,7.1 94.4,11.7 94.4,11.7 94.4,10.6 94.4,7.1 95.2,7.1 95.2,13.1 94.4,13.1 
		91.3,8.2 91.3,8.2 91.3,9.3 91.3,13.1 90.6,13.1 	"/>
	<polygon class="st10" points="90.6,13.1 90.6,7.1 91.5,7.1 94.4,11.7 94.4,11.7 94.4,10.6 94.4,7.1 95.2,7.1 95.2,13.1 94.4,13.1 
		91.3,8.2 91.3,8.2 91.3,9.3 91.3,13.1 	"/>
	<path class="st2" d="M101.5,12.3c-1.2,1.2-3.2,1.2-4.4,0c-0.6-0.6-0.9-1.4-0.9-2.2s0.3-1.6,0.9-2.2S98.5,7,99.3,7
		c0.8,0,1.6,0.3,2.2,0.9s0.9,1.4,0.9,2.2C102.4,10.9,102,11.7,101.5,12.3 M97.6,11.8c0.9,0.9,2.3,0.9,3.2,0l0,0
		c0.4-0.5,0.7-1.1,0.7-1.7c0-0.6-0.2-1.3-0.7-1.7c-0.9-0.9-2.3-0.9-3.2,0l0,0c-0.4,0.4-0.6,1-0.6,1.7C97,10.7,97.2,11.3,97.6,11.8z"
		/>
	<path class="st10" d="M101.5,12.3c-1.2,1.2-3.2,1.2-4.4,0c-0.6-0.6-0.9-1.4-0.9-2.2s0.3-1.6,0.9-2.2S98.5,7,99.3,7
		c0.8,0,1.6,0.3,2.2,0.9s0.9,1.4,0.9,2.2C102.4,10.9,102,11.7,101.5,12.3z M97.6,11.8c0.9,0.9,2.3,0.9,3.2,0l0,0
		c0.4-0.5,0.7-1.1,0.7-1.7c0-0.6-0.2-1.3-0.7-1.7c-0.9-0.9-2.3-0.9-3.2,0l0,0c-0.4,0.4-0.6,1-0.6,1.7C97,10.7,97.2,11.3,97.6,11.8z"
		/>
</g>
</svg>
