<?xml version="1.0" encoding="UTF-8"?>
<svg id="Layer_1" data-name="Layer 1" xmlns="http://www.w3.org/2000/svg" viewBox="0 0 100 100">
  <path d="M50,92.51c16.75-9.73,27.66-18.02,36.41-43.37,3.54-10.26,5.19-19.95,5.77-26.07.2-2.07-.76-4.08-2.5-5.23h0c-1.44-.96-3.24-1.21-4.88-.65-3.83,1.32-9.26,2.23-16.07.91-13.61-2.63-18.75-10.6-18.75-10.6,0,0-5.14,7.97-18.75,10.6-6.8,1.32-12.24.4-16.07-.91-1.64-.56-3.43-.31-4.88.65h0c-1.74,1.15-2.7,3.15-2.5,5.23.59,6.12,2.23,15.81,5.77,26.07,8.76,25.35,19.67,33.65,36.41,43.37Z"/>
</svg>