<?xml version="1.0" encoding="UTF-8"?>
<svg id="Layer_1" data-name="Layer 1" xmlns="http://www.w3.org/2000/svg" viewBox="0 0 100 100">
  <path d="M89.55,20.52h0S50.1.7,50.1.7l-26.08,13.15h0S1.57,25.24,1.57,25.24v.55c0,.22.22,6.57,2.3,15.34,1.86,8.22,5.7,20.05,13.37,30.46l2.85,3.61.44.55c1.1,1.31,2.3,2.63,3.51,3.94,1.2,1.2,2.52,2.52,3.84,3.73,10.96,10.19,21.8,15.56,21.91,15.67l.33.22.33-.22c.11,0,11.06-5.48,21.91-15.67l.66-.55,2.96-3.3c1.2-1.31,2.41-2.63,3.51-3.94,1.1-1.31,2.19-2.74,3.28-4.17,7.67-10.41,11.51-22.35,13.37-30.46,1.97-8.88,2.19-15.12,2.3-15.34v-.55l-8.88-4.6Z"/>
</svg>