<?xml version="1.0" encoding="UTF-8"?>
<svg id="Layer_1" data-name="Layer 1" xmlns="http://www.w3.org/2000/svg" viewBox="0 0 100 100">
  <path d="M91.22,31.09s0-.01,0-.02c-.01-1.29.07-2.57-.08-3.86,0-.06-.01-.12-.02-.18-.28-2.35-1.82-4.1-4.06-4.66-.89-.22-1.79-.2-2.69-.28-3.14-.3-6.2-.89-9.11-2.14-3.31-1.41-6.26-3.36-8.45-6.28-1.72-2.3-2.84-4.91-3.7-7.63-.08-.33-.31-.57-.64-.67-2.73-.89-5.55-1.48-8.39-1.77-.66-.07-1.32-.13-1.99-.16-.93-.05-1.86-.07-2.78-.07-4,.04-7.94.65-11.78,1.92-.67.22-1.15.48-1.21,1.24-.03.22-.09.42-.17.61,0,0,0,0,0,0-1.26,4.12-3.4,7.63-6.94,10.2-3.62,2.64-7.57,4.37-12.11,4.6-1.15.06-2.32.03-3.47.25-2.95.56-4.83,2.75-4.86,5.77-.02,2.28,0,4.57,0,6.71.14,4.94.34,9.71,1.03,14.47.68,4.76,1.63,9.45,3.01,14.06,2.67,8.89,7.21,16.64,13.92,23.08,3.98,3.81,8.44,6.87,13.69,8.67,4.6,1.59,9.29,2.1,14.11,1.31,4.16-.7,8.14-2.24,11.69-4.52,8.56-5.49,14.7-13.08,18.69-22.38,3.75-8.69,5.24-17.9,6-27.26.26-3.2.31-6.4.3-9.63,0-.46,0-.93,0-1.39Z"/>
</svg>