<?xml version="1.0" encoding="UTF-8"?>
<svg id="Layer_1" data-name="Layer 1" xmlns="http://www.w3.org/2000/svg" viewBox="0 0 100 100">
  <path d="M89.55,20.52h0S50.1.7,50.1.7l-26.08,13.15h0S1.57,25.24,1.57,25.24v.55c0,.22.22,6.57,2.3,15.34,1.86,8.22,5.7,20.05,13.37,30.46l2.85,3.61.44.55c1.1,1.31,2.3,2.63,3.51,3.94,1.2,1.2,2.52,2.52,3.84,3.73,10.96,10.19,21.8,15.56,21.91,15.67l.33.22.33-.22c.11,0,11.06-5.48,21.91-15.67l.66-.55,2.96-3.3c1.2-1.31,2.41-2.63,3.51-3.94,1.1-1.31,2.19-2.74,3.28-4.17,7.67-10.41,11.51-22.35,13.37-30.46,1.97-8.88,2.19-15.12,2.3-15.34v-.55l-8.88-4.6ZM31.55,17.69l18.84-9.55,17.47,8.86-3.32,3.58-14.29-7.21-14.23,7.18-5.83,2.98h-.02l-6.6,3.52-3.11-3.69,11.09-5.66ZM32.81,76.98c-1.01-1.11-5.79-6.38-6.69-7.44-.47-.64-.99-1.32-1.51-1.99-.38-.5-1.34-1.76-1.34-1.76-.35-.47-.76-.99-1.05-1.47l-.06-.1c-8.36-12.27-12.06-26.7-13.62-35.12l7.21-3.6,2.98,3.74-5.04,2.52.4,1.66c1.71,7.13,4.97,17.55,10.82,26.8.55,1.07,1.27,2.07,1.91,2.96l.3.42c.3.46.66.89,1,1.31.29.35.56.68.78,1.01l1.79,2.08c.47.53,5.15,5.37,5.64,5.89l-3.54,3.08ZM70.07,74.67c-1.05,1.15-2.13,2.19-3.17,3.2-.54.52-1.07,1.03-1.58,1.55-5.48,4.98-11.07,8.99-15.11,11.66-3.1-1.97-8.08-5.41-13.46-10.21l3.27-3.27c2.75,2.34,5.75,4.7,8.96,7.03l1.27.92,1.27-.92c2.62-1.91,6.57-4.88,10.52-8.53.56-.56,1.08-1.06,1.6-1.57,1.08-1.05,3.32-3.37,3.32-3.37.69-.83,1.42-1.66,2.15-2.49.22-.25,3.78-4.66,3.99-4.9l3.42,3.12c-1.02,1.2-5.42,6.75-6.46,7.8ZM79.63,62.33l-3.35-3.35c4.18-6.99,7.4-15.32,9.83-25.41l.39-1.61-3.28-1.76-13.8-7.04,3.06-3.71,15.55,7.94,3.64,1.97c-1.71,9.38-5.15,22.04-12.05,32.99Z"/>
</svg>