<svg xmlns="http://www.w3.org/2000/svg"  viewBox="0 0 100 100" data-rd-circle="1">
<defs><clipPath id="rd-c-coreiadosulsvg"><circle cx="50" cy="50" r="50"/></clipPath></defs>
<g clip-path="url(#rd-c-coreiadosulsvg)">
<svg viewBox="-72 -48 144 96" width="100" height="100" preserveAspectRatio="xMidYMid slice" ><path fill="#fff" d="M-72-48v96H72v-96z"/><g stroke="#000" stroke-width="4"><path transform="rotate(33.69006752598)" d="M-50-12v24m6 0v-24m6 0v24m76 0V1m0-2v-11m6 0v11m0 2v11m6 0V1m0-2v-11"/><path transform="rotate(-33.69006752598)" d="M-50-12v24m6 0V1m0-2v-11m6 0v24m76 0V1m0-2v-11m6 0v24m6 0V1m0-2v-11"/></g><g transform="rotate(33.69006752598)"><path fill="#cd2e3a" d="M12 0a18 18 0 11-36 0 24 24 0 1148 0"/><path fill="#0047a0" d="M-24 0a24 24 0 1048 0A12 12 0 100 0a12 12 0 11-24 0"/></g></svg>
</g>
</svg>
